<?xml version="1.0" encoding="UTF-8"?>
<svg id="SI_logo_primary" width="1080" height="480.95" version="1.1" viewBox="0 0 1080 480.95" xmlns="http://www.w3.org/2000/svg" xmlns:cc="http://creativecommons.org/ns#" xmlns:dc="http://purl.org/dc/elements/1.1/" xmlns:rdf="http://www.w3.org/1999/02/22-rdf-syntax-ns#">
 <defs id="defs1">
  <style id="style1" type="text/css">.cls-1 {
        fill: none;
      }

      .cls-2 {
        clip-path: url(#clip-path);
      }

      .cls-3 {
        fill: #101820;
      }

      .cls-4 {
        fill: #009ade;
      }

      .cls-5 {
        fill: #ffcd00;
      }</style>
 </defs>
 <title id="title1">si_logo-primary-color</title>
 <g id="g16">
  <g id="g15">
   <path id="path1" class="cls-3" d="m73.25 368.9c-3.9-13.95-9.5-29.05-28.4-29.05a22.85 22.85 0 0 0-24.05 24.05c0 15.95 10.4 23.35 27.55 32.3s37.5 19 37.5 43.5c0 22.9-19.3 41.25-48.15 41.25a75.9 75.9 0 0 1-21.2-3.25 70 70 0 0 1-10.65-4.6 267.65 267.65 0 0 1-5.85-33.9l6.3-1.55c3.7 13.35 13.2 35.4 35.55 35.4a24.2 24.2 0 0 0 26-26.2c0-16.15-11.9-23.8-28.2-32.55-13.85-7.45-35.75-18.35-35.75-43.05 0-20.95 16.7-38.85 44.65-38.85a89.55 89.55 0 0 1 27.3 5c0.9 7.85 2 16.4 3.7 30z"/>
   <path id="path2" class="cls-3" d="m218.75 477.65v-5.7c12.75-1.3 15-2.15 15-17.7v-36.45c0-15.5-5.4-25.35-19.05-25.35a40 40 0 0 0-24.15 11.45 50.5 50.5 0 0 1 0.65 9.2v42.6c0 13.75 1.95 15 13.9 16.35v5.7h-46.4v-5.8c13.4-1.3 15.4-2.4 15.4-16.8v-37.6c0-16.15-5.65-25-18.9-25-8.65 0-17.1 5.9-23.6 11.35v51.25c0 14.2 1.7 15.5 12.35 16.8v5.7h-45.75v-5.7c14.3-1.3 16.25-2.6 16.25-16.8v-45c0-14-0.65-15-13.2-17.05v-5a129.15 129.15 0 0 0 30-8.95v17.7c4.55-3.05 9.35-7 15.85-11.15a32.1 32.1 0 0 1 17.9-6.15 25.9 25.9 0 0 1 24.1 17.95 180.7 180.7 0 0 1 18-12.25 30 30 0 0 1 16.25-5.7c16.9 0 27.5 12.05 27.5 33.45v42.15c0 14.65 1.75 15.5 14.1 16.8v5.7z"/>
   <path id="path3" class="cls-3" d="m288.3 349.4a11.2 11.2 0 0 1 11.1-11.35 10.85 10.85 0 0 1 10.6 11.35 11.15 11.15 0 0 1-11.05 11.15 11.4 11.4 0 0 1-10.85-11.15m-11.25 128.25v-5.7c13.65-1.3 15-2.6 15-17.45v-45c0-13.55-0.65-14.45-13.65-16.6v-5a138.1 138.1 0 0 0 30.8-8.5v75.1c0 15 1.5 16.15 15.35 17.45v5.7z"/>
   <path id="path4" class="cls-3" d="m375.25 477.45a21.95 21.95 0 0 1-9.1 2.8c-13.65 0-21.25-8.7-21.25-26v-63.55h-14.9l-0.9-2.2 5.9-6.3h10v-15.95l14.1-14.45 3 0.45v30h24.5a6.25 6.25 0 0 1-1.3 8.5h-23.3v56.1c0 17.7 7.2 20.95 12.6 20.95a30.75 30.75 0 0 0 13.45-3.9l1.95 5.9z"/>
   <path id="path5" class="cls-3" d="m458.25 477.65v-5.7c12.6-1.3 14.35-2.6 14.35-16.8v-36.25c0-17.95-6.75-26.9-21.25-26.9a30.4 30.4 0 0 0-22.55 11.15v52c0 14 1.05 15.5 13.85 16.8v5.7h-45.95v-5.7c13-1.05 15-2.4 15-16.8v-104.2c0-13.75-0.4-15-15-16.15v-5a226.35 226.35 0 0 0 31.9-7.65v73.35c7.6-7.85 19.3-15.95 31-15.95 17.55 0 30 11.15 30 37.35v38.25c0 14.4 1.5 15.75 14.3 16.8v5.7z"/>
   <path id="path6" class="cls-3" d="m570.55 407.95c-4.1-12.9-11.7-21.6-22.3-21.6a14.2 14.2 0 0 0-14.1 15c0 10 8.65 15 18.4 19 16.3 6.8 27.35 14.65 27.35 29.7 0 20-18.45 30-35.8 30a43.4 43.4 0 0 1-25-7.4 101.9 101.9 0 0 1-3.5-25.8l5.65-1.1c3.9 14.45 13.65 27.1 26.65 27.1a15 15 0 0 0 15.4-15.3c0-9.6-6.25-15-17.1-20-13-6.15-27.1-13.35-27.1-30 0-15.3 13-28.2 32.95-28.2a50 50 0 0 1 19.3 3.75 169.4 169.4 0 0 1 4.75 23.35z"/>
   <path id="path7" class="cls-3" d="m616.3 425c0 27.55 11.9 48.05 29.7 48.05 13.45 0 24.5-10 24.5-40 0-25.6-10-46.35-29.05-46.35-13.45 0-25 13.55-25 38.25m74.35 3.3c0 35-25.55 51.95-47.05 51.95a47.1 47.1 0 0 1-47.45-48.25c0-36.05 27.75-52.45 47.45-52.45a47.25 47.25 0 0 1 47.05 48.75"/>
   <path id="path8" class="cls-3" d="m764.35 477.65v-5.7c12.8-1.3 14.35-3.05 14.35-18.1v-36.5c0-15-5.25-25-20-25a38.65 38.65 0 0 0-23.65 11.15v51.45c0 15 1.3 15.7 14.1 17v5.7h-47.05v-5.7c14.75-1.5 15.85-2.6 15.85-17v-45c0-13.95-1.3-14.65-13-16.8v-5a126.65 126.65 0 0 0 30-8.95v17.5c4.35-3.3 9.1-6.55 14.55-10.3a33.25 33.25 0 0 1 18-6.55c17.1 0 27.95 12.05 27.95 33.2v42.2c0 15 1.1 15.7 13.65 17v5.7z"/>
   <path id="path9" class="cls-3" d="m833.1 349.4a11.2 11.2 0 0 1 11.05-11.35 10.9 10.9 0 0 1 10.85 11.35 11.2 11.2 0 0 1-11.1 11.15 11.4 11.4 0 0 1-10.8-11.15m-11.5 128.25v-5.7c13.65-1.3 15-2.6 15-17.45v-45c0-13.55-0.65-14.45-13.65-16.6v-5a138.1 138.1 0 0 0 30.8-8.5v75.1c0 15 1.5 16.15 15.4 17.45v5.7z"/>
   <path id="path10" class="cls-3" d="m933 425.2c-4.55 2.4-15 7-19.5 9.2-8.45 3.95-13.2 8.05-13.2 15.95a15.9 15.9 0 0 0 15.4 16.8 30.55 30.55 0 0 0 17.3-7.85zm15.85 55a17.6 17.6 0 0 1-10-4.15 23.05 23.05 0 0 1-5-10c-8.65 5.9-19.1 13.95-25.6 13.95a26.25 26.25 0 0 1-26-26.65c0-10.7 5.65-17.45 17.55-21.6 13-4.4 28.85-10.3 33.6-14.2v-3.65c0-15.7-7.35-24.7-18.2-24.7a12.05 12.05 0 0 0-10 4.4 32.25 32.25 0 0 0-6.5 14.4 6.05 6.05 0 0 1-6.3 5 10.6 10.6 0 0 1-9.5-9.4c0-3.3 2.8-5.7 6.9-8.75a96.85 96.85 0 0 1 32.55-15.3 28.2 28.2 0 0 1 17.65 5.9c7.6 6.35 9.75 15.3 9.75 26.65v40.65c0 10 3.9 13.1 7.6 13.1a16.4 16.4 0 0 0 7.8-2.4l2.15 5.7z"/>
   <path id="path11" class="cls-3" d="m1035 477.65v-5.7c12.8-1.3 14.3-3.05 14.3-18.1v-36.5c0-15-5-25-19.7-25a38.55 38.55 0 0 0-23.65 11.15v51.45c0 15 1.3 15.7 14.1 17v5.7h-47.05v-5.7c14.75-1.5 15.85-2.6 15.85-17v-45c0-13.95-1.3-14.65-13-16.8v-5a127.35 127.35 0 0 0 30-8.95v17.5c4.35-3.3 9.1-6.55 14.55-10.3a33.25 33.25 0 0 1 17.95-6.55c17.15 0 28 12.05 28 33.2v42.2c0 15 1.05 15.7 13.65 17v5.7z"/>
  </g>
  <g id="g14">
   <circle id="path14" cx="540" cy="136.1" r="136.1" style="fill-rule:evenodd;fill:#009ade;paint-order:fill markers stroke;stroke-width:8.55955"/>
   <path id="path13" class="cls-5" d="m622.1 163.9a28.65 28.65 0 0 0-24.45-15.4l58.7-12.35-58.7-12.25a47.2 47.2 0 0 1 29.15-10.95c12.9 0 24.1-16.15 16.95-28.4 0 0-2.1 19.25-26.2 12.85a28.2 28.2 0 0 0-28.1 6.50001l32.9-50.55-50 33.1a47.9 47.9 0 0 1 12.65-28.75c9-9.35 5.75-28.55-7.9-32.15 0 0 12 15-9.55 27.75a29 29 0 0 0-15.3 24.65l-12.25-59.05-12.25 59.15a47.65 47.65 0 0 1-10.9-29.35c0-13.05-16-24.3-28.15-17.1 0 0 19.1 2.1 12.7 26.4a29 29 0 0 0 6.5 28.35l-50-33.15 26.8 41.25 5.9 9.45001a47.15 47.15 0 0 1-28.35-13c-9.25-9.3-28.35-6-31.9 8 0 0 15-12.1 27.55 9.65001a28.6 28.6 0 0 0 24.45 15.35l-58.7 12.15 58.7 12.35a47.3 47.3 0 0 1-29.15 10.95c-12.95 0-24.1 16.15-17 28.4 0 0 2.15-19.25 26.25-12.85a28.2 28.2 0 0 0 28.1-6.55l-32.85 50.55 50-33.1a48.3 48.3 0 0 1-12.7 28.6c-9 9.35-5.75 28.55 7.9 32.15 0 0-12-15 9.55-27.75a28.85 28.85 0 0 0 15.25-24.9l12.3 59.4 12.25-59.15a47.95 47.95 0 0 1 10.9 29.35c0 13.05 16 24.3 28.15 17.1 0 0-19.1-2.1-12.75-26.4a28.9 28.9 0 0 0-6.5-28.35l50 33.1-17.05-26.7-15.55-23.85a47.55 47.55 0 0 1 28.35 13c9.25 9.1 28.35 5.8 31.9-7.95 0 0-15 12.1-27.55-9.65"/>
  </g>
 </g>
 <metadata id="metadata13">
  <rdf:RDF>
   <cc:Work rdf:about="">
    <dc:title>si_logo-primary-color</dc:title>
   </cc:Work>
  </rdf:RDF>
 </metadata>
</svg>